<?xml version="1.0" encoding="UTF-8" standalone="no"?><!DOCTYPE svg PUBLIC "-//W3C//DTD SVG 1.1//EN" "http://www.w3.org/Graphics/SVG/1.1/DTD/svg11.dtd"><!-- Generated by graphviz version 2.40.1 (20161225.0304)
 --><!-- Title: G Pages: 1 --><svg xmlns="http://www.w3.org/2000/svg" xmlns:xlink="http://www.w3.org/1999/xlink" width="766pt" height="756pt" viewBox="0.00 0.00 766.00 756.00">
<g id="graph0" class="graph" transform="scale(1 1) rotate(0) translate(4 752)">
<title>G</title>
<polygon fill="#ffffff" stroke="transparent" points="-4,4 -4,-752 762,-752 762,4 -4,4"/>
<g id="clust1" class="cluster">
<title>cluster0</title>
<polygon fill="none" stroke="#000000" points="34,-8 34,-179.2 542,-179.2 542,-8 34,-8"/>
<text text-anchor="middle" x="288" y="-162.6" font-family="Times,serif" font-size="14.00" fill="#000000">Set 0 RecordType(INTEGER id, INTEGER city_id, VARCHAR name, INTEGER age)</text>
</g>
<g id="clust2" class="cluster">
<title>cluster1</title>
<polygon fill="none" stroke="#000000" points="8,-187.2 8,-358.4 572,-358.4 572,-187.2 8,-187.2"/>
<text text-anchor="middle" x="290" y="-341.8" font-family="Times,serif" font-size="14.00" fill="#000000">Set 1 RecordType(INTEGER id, INTEGER city_id, VARCHAR name, INTEGER age)</text>
</g>
<g id="clust3" class="cluster">
<title>cluster2</title>
<polygon fill="none" stroke="#000000" points="51,-366.4 51,-704 750,-704 750,-366.4 51,-366.4"/>
<text text-anchor="middle" x="400.5" y="-687.4" font-family="Times,serif" font-size="14.00" fill="#000000">Set 2 RecordType(INTEGER id, INTEGER city_id, VARCHAR name, INTEGER age)</text>
</g>
<!-- root -->
<g id="node1" class="node">
<title>root</title>
<ellipse fill="#d3d3d3" stroke="#000000" cx="404" cy="-730" rx="29.6358" ry="18"/>
<text text-anchor="middle" x="404" y="-725.8" font-family="Times,serif" font-size="14.00" fill="#000000">Root</text>
</g>
<!-- subset11 -->
<g id="node12" class="node">
<title>subset11</title>
<ellipse fill="none" stroke="#000000" cx="404" cy="-653.2" rx="150.5081" ry="18"/>
<text text-anchor="middle" x="404" y="-649" font-family="Times,serif" font-size="14.00" fill="#000000">rel#11:Subset#2.LimeConvention.[]</text>
</g>
<!-- root&#45;&gt;subset11 -->
<g id="edge1" class="edge">
<title>root-&gt;subset11</title>
<path fill="none" stroke="#000000" d="M404,-711.7995C404,-702.7132 404,-691.5176 404,-681.3549"/>
<polygon fill="#000000" stroke="#000000" points="407.5001,-681.2698 404,-671.2699 400.5001,-681.2699 407.5001,-681.2698"/>
</g>
<!-- rel3 -->
<g id="node2" class="node">
<title>rel3</title>
<polygon fill="none" stroke="#0000ff" points="413.3051,-74.6014 116.6949,-74.6014 116.6949,-15.7986 413.3051,-15.7986 413.3051,-74.6014"/>
<text text-anchor="middle" x="265" y="-57.8" font-family="Times,serif" font-size="14.00" fill="#000000">rel#3:TableScanLimeRel</text>
<text text-anchor="middle" x="265" y="-41" font-family="Times,serif" font-size="14.00" fill="#000000">table=[default, users]</text>
<text text-anchor="middle" x="265" y="-24.2" font-family="Times,serif" font-size="14.00" fill="#000000">rows=100.0, cost={100.0 rows, 101.0 cpu, 0.0 io}</text>
</g>
<!-- subset6 -->
<g id="node3" class="node">
<title>subset6</title>
<ellipse fill="none" stroke="#000000" cx="265" cy="-128.4" rx="145.8513" ry="18"/>
<text text-anchor="middle" x="265" y="-124.2" font-family="Times,serif" font-size="14.00" fill="#000000">rel#6:Subset#0.LimeConvention.[]</text>
</g>
<!-- subset6&#45;&gt;rel3 -->
<g id="edge2" class="edge">
<title>subset6-&gt;rel3</title>
<path fill="none" stroke="#0000ff" d="M265,-110.3468C265,-102.7769 265,-93.656 265,-84.6681"/>
<polygon fill="#0000ff" stroke="#0000ff" points="268.5001,-84.6667 265,-74.6668 261.5001,-84.6668 268.5001,-84.6667"/>
</g>
<!-- rel7 -->
<g id="node4" class="node">
<title>rel7</title>
<polygon fill="none" stroke="#000000" points="563.9468,-253.8014 324.0532,-253.8014 324.0532,-194.9986 563.9468,-194.9986 563.9468,-253.8014"/>
<text text-anchor="middle" x="444" y="-237" font-family="Times,serif" font-size="14.00" fill="#000000">rel#7:LogicalFilter</text>
<text text-anchor="middle" x="444" y="-220.2" font-family="Times,serif" font-size="14.00" fill="#000000">input=RelSubset#6,condition=&gt;($3, 20)</text>
<text text-anchor="middle" x="444" y="-203.4" font-family="Times,serif" font-size="14.00" fill="#000000">rows=50.0, cost={inf}</text>
</g>
<!-- rel7&#45;&gt;subset6 -->
<g id="edge4" class="edge">
<title>rel7-&gt;subset6</title>
<path fill="none" stroke="#000000" d="M389.3215,-195.0752C362.7919,-180.8471 331.4263,-164.0253 306.8374,-150.838"/>
<polygon fill="#000000" stroke="#000000" points="308.2364,-147.6167 297.7695,-145.9747 304.9279,-153.7855 308.2364,-147.6167"/>
</g>
<!-- rel14 -->
<g id="node5" class="node">
<title>rel14</title>
<polygon fill="none" stroke="#0000ff" points="305.8051,-253.8014 16.1949,-253.8014 16.1949,-194.9986 305.8051,-194.9986 305.8051,-253.8014"/>
<text text-anchor="middle" x="161" y="-237" font-family="Times,serif" font-size="14.00" fill="#000000">rel#14:FilterLimeRel</text>
<text text-anchor="middle" x="161" y="-220.2" font-family="Times,serif" font-size="14.00" fill="#000000">input=RelSubset#6,condition=&gt;($3, 20)</text>
<text text-anchor="middle" x="161" y="-203.4" font-family="Times,serif" font-size="14.00" fill="#000000">rows=50.0, cost={150.0 rows, 201.0 cpu, 0.0 io}</text>
</g>
<!-- rel14&#45;&gt;subset6 -->
<g id="edge6" class="edge">
<title>rel14-&gt;subset6</title>
<path fill="none" stroke="#0000ff" d="M192.7685,-195.0752C207.1498,-181.8002 223.977,-166.2674 237.7702,-153.5352"/>
<polygon fill="#0000ff" stroke="#0000ff" points="240.5254,-155.7552 245.4994,-146.4005 235.7774,-150.6115 240.5254,-155.7552"/>
</g>
<!-- subset8 -->
<g id="node6" class="node">
<title>subset8</title>
<ellipse fill="none" stroke="#000000" cx="444" cy="-307.6" rx="107.084" ry="18"/>
<text text-anchor="middle" x="444" y="-303.4" font-family="Times,serif" font-size="14.00" fill="#000000">rel#8:Subset#1.NONE.[]</text>
</g>
<!-- subset8&#45;&gt;rel7 -->
<g id="edge3" class="edge">
<title>subset8-&gt;rel7</title>
<path fill="none" stroke="#000000" d="M444,-289.5468C444,-281.9769 444,-272.856 444,-263.8681"/>
<polygon fill="#000000" stroke="#000000" points="447.5001,-263.8667 444,-253.8668 440.5001,-263.8668 447.5001,-263.8667"/>
</g>
<!-- subset15 -->
<g id="node7" class="node">
<title>subset15</title>
<ellipse fill="none" stroke="#000000" cx="167" cy="-307.6" rx="150.5081" ry="18"/>
<text text-anchor="middle" x="167" y="-303.4" font-family="Times,serif" font-size="14.00" fill="#000000">rel#15:Subset#1.LimeConvention.[]</text>
</g>
<!-- subset15&#45;&gt;rel14 -->
<g id="edge5" class="edge">
<title>subset15-&gt;rel14</title>
<path fill="none" stroke="#0000ff" d="M165.6981,-289.5468C165.1522,-281.9769 164.4944,-272.856 163.8463,-263.8681"/>
<polygon fill="#0000ff" stroke="#0000ff" points="167.3353,-263.5891 163.125,-253.8668 160.3535,-264.0926 167.3353,-263.5891"/>
</g>
<!-- rel9 -->
<g id="node8" class="node">
<title>rel9</title>
<polygon fill="none" stroke="#000000" points="491.0547,-433.0014 166.9453,-433.0014 166.9453,-374.1986 491.0547,-374.1986 491.0547,-433.0014"/>
<text text-anchor="middle" x="329" y="-416.2" font-family="Times,serif" font-size="14.00" fill="#000000">rel#9:LogicalProject</text>
<text text-anchor="middle" x="329" y="-399.4" font-family="Times,serif" font-size="14.00" fill="#000000">input=RelSubset#8,id=$0,city_id=$1,name=$2,age=$3</text>
<text text-anchor="middle" x="329" y="-382.6" font-family="Times,serif" font-size="14.00" fill="#000000">rows=50.0, cost={inf}</text>
</g>
<!-- rel9&#45;&gt;subset8 -->
<g id="edge8" class="edge">
<title>rel9-&gt;subset8</title>
<path fill="none" stroke="#000000" d="M364.1287,-374.2752C380.4408,-360.6581 399.5987,-344.6654 415.0623,-331.7567"/>
<polygon fill="#000000" stroke="#000000" points="417.3436,-334.4116 422.7774,-325.3163 412.8577,-329.0378 417.3436,-334.4116"/>
</g>
<!-- rel12 -->
<g id="node9" class="node">
<title>rel12</title>
<polygon fill="none" stroke="#000000" points="399.1476,-599.4014 58.8524,-599.4014 58.8524,-540.5986 399.1476,-540.5986 399.1476,-599.4014"/>
<text text-anchor="middle" x="229" y="-582.6" font-family="Times,serif" font-size="14.00" fill="#000000">rel#12:AbstractConverter</text>
<text text-anchor="middle" x="229" y="-565.8" font-family="Times,serif" font-size="14.00" fill="#000000">input=RelSubset#10,convention=LimeConvention,sort=[]</text>
<text text-anchor="middle" x="229" y="-549" font-family="Times,serif" font-size="14.00" fill="#000000">rows=50.0, cost={inf}</text>
</g>
<!-- subset10 -->
<g id="node11" class="node">
<title>subset10</title>
<ellipse fill="none" stroke="#000000" cx="249" cy="-486.8" rx="111.7411" ry="18"/>
<text text-anchor="middle" x="249" y="-482.6" font-family="Times,serif" font-size="14.00" fill="#000000">rel#10:Subset#2.NONE.[]</text>
</g>
<!-- rel12&#45;&gt;subset10 -->
<g id="edge10" class="edge">
<title>rel12-&gt;subset10</title>
<path fill="none" stroke="#000000" d="M236.1076,-540.4325C238.097,-532.1566 240.2535,-523.1855 242.2232,-514.9916"/>
<polygon fill="#000000" stroke="#000000" points="245.6573,-515.6801 244.5916,-505.139 238.8512,-514.044 245.6573,-515.6801"/>
</g>
<!-- rel13 -->
<g id="node10" class="node">
<title>rel13</title>
<polygon fill="none" stroke="#000000" points="742.0547,-599.4014 417.9453,-599.4014 417.9453,-540.5986 742.0547,-540.5986 742.0547,-599.4014"/>
<text text-anchor="middle" x="580" y="-582.6" font-family="Times,serif" font-size="14.00" fill="#000000">rel#13:ProjectLimeRel</text>
<text text-anchor="middle" x="580" y="-565.8" font-family="Times,serif" font-size="14.00" fill="#000000">input=RelSubset#8,id=$0,city_id=$1,name=$2,age=$3</text>
<text text-anchor="middle" x="580" y="-549" font-family="Times,serif" font-size="14.00" fill="#000000">rows=50.0, cost={inf}</text>
</g>
<!-- rel13&#45;&gt;subset8 -->
<g id="edge12" class="edge">
<title>rel13-&gt;subset8</title>
<path fill="none" stroke="#000000" d="M572.3687,-540.6884C560.8268,-499.5648 536.3488,-423.3968 500,-366.4 492.208,-354.1817 481.6441,-342.2948 471.7909,-332.4433"/>
<polygon fill="#000000" stroke="#000000" points="474.0703,-329.7785 464.4523,-325.3348 469.2,-334.8064 474.0703,-329.7785"/>
</g>
<!-- subset10&#45;&gt;rel9 -->
<g id="edge7" class="edge">
<title>subset10-&gt;rel9</title>
<path fill="none" stroke="#000000" d="M266.3588,-468.7468C274.3419,-460.4444 284.1191,-450.2761 293.5539,-440.464"/>
<polygon fill="#000000" stroke="#000000" points="296.2584,-442.701 300.6666,-433.0668 291.2125,-437.8492 296.2584,-442.701"/>
</g>
<!-- subset11&#45;&gt;rel12 -->
<g id="edge9" class="edge">
<title>subset11-&gt;rel12</title>
<path fill="none" stroke="#000000" d="M366.887,-635.5554C347.3122,-626.249 322.6338,-614.5162 299.5836,-603.5575"/>
<polygon fill="#000000" stroke="#000000" points="301.0403,-600.3746 290.5062,-599.2418 298.0347,-606.6965 301.0403,-600.3746"/>
</g>
<!-- subset11&#45;&gt;rel13 -->
<g id="edge11" class="edge">
<title>subset11-&gt;rel13</title>
<path fill="none" stroke="#000000" d="M441.3251,-635.5554C461.0117,-626.249 485.8312,-614.5162 509.013,-603.5575"/>
<polygon fill="#000000" stroke="#000000" points="510.5975,-606.6799 518.1423,-599.2418 507.6058,-600.3514 510.5975,-606.6799"/>
</g>
</g>
</svg>